<?xml version="1.0" standalone="no"?>
<!DOCTYPE svg PUBLIC "-//W3C//DTD SVG 20010904//EN"
 "http://www.w3.org/TR/2001/REC-SVG-20010904/DTD/svg10.dtd">
<svg version="1.0" xmlns="http://www.w3.org/2000/svg"
 width="320.000000pt" height="320.000000pt" viewBox="0 0 320.000000 320.000000"
 preserveAspectRatio="xMidYMid meet">
<metadata>
Created by potrace 1.11, written by Peter Selinger 2001-2013
</metadata>
<g transform="translate(0.000000,320.000000) scale(0.100000,-0.100000)"
fill="#000000" stroke="none">
<path d="M2177 2603 c-3 -5 -8 -27 -12 -49 -4 -25 -16 -51 -31 -65 -13 -12
-24 -31 -24 -41 0 -38 -19 -16 -25 30 -9 64 -12 72 -30 72 -21 0 -64 -100 -72
-169 -3 -31 -14 -72 -23 -91 -15 -30 -26 -86 -56 -287 -3 -20 -11 -33 -19 -33
-8 0 -15 5 -15 10 0 6 -8 10 -19 10 -20 0 -31 -34 -31 -100 0 -49 -8 -70 -25
-64 -19 8 -35 -28 -35 -77 0 -34 -3 -40 -12 -31 -19 19 -37 14 -44 -13 -10
-39 -29 -24 -32 26 -2 24 -7 48 -12 54 -4 5 -14 39 -21 73 -6 35 -18 66 -25
69 -15 6 -28 50 -39 128 -7 54 -28 85 -56 85 -15 0 -18 -14 -24 -97 -9 -136
-13 -157 -31 -142 -7 6 -20 9 -28 6 -26 -10 -55 -112 -62 -214 -4 -65 -11
-102 -20 -109 -12 -10 -32 -117 -34 -179 0 -18 -2 -17 -13 4 -17 34 -35 37
-48 7 -7 -14 -18 -26 -25 -26 -16 0 -24 -23 -25 -78 l-1 -47 -13 63 c-7 35
-17 68 -23 74 -19 19 -40 0 -47 -42 -4 -23 -10 -39 -13 -35 -14 13 -32 86 -42
164 -6 47 -13 88 -16 92 -2 5 -21 7 -42 6 l-37 -2 -3 -61 c-2 -50 -6 -63 -21
-67 -16 -4 -20 -20 -26 -127 -6 -100 -11 -126 -26 -141 -11 -11 -22 -19 -27
-19 -7 0 -33 52 -52 102 -12 34 -40 37 -58 7 -8 -12 -16 -47 -20 -78 -4 -45
-7 -51 -13 -31 -4 14 -7 48 -8 77 -1 29 -7 72 -15 95 -8 24 -19 100 -25 171
-10 134 -14 147 -36 147 -17 0 -35 -61 -44 -145 -4 -43 -10 -60 -21 -61 -8 -1
-23 -2 -32 -2 -22 -2 -44 -66 -59 -166 -6 -44 -14 -89 -18 -100 -7 -18 -10
-15 -21 19 -36 113 -65 107 -74 -15 -7 -77 -17 -112 -31 -98 -2 2 -7 48 -12
103 -7 93 -10 100 -30 103 -13 2 -23 2 -23 0 0 -25 -25 -129 -37 -151 -8 -16
-18 -47 -22 -70 l-8 -42 -7 40 c-14 76 -31 120 -46 120 -18 0 -49 -60 -50 -95
0 -18 -3 -21 -9 -12 -5 8 -17 12 -27 10 -17 -3 -20 -16 -24 -105 -3 -56 -8
-104 -11 -107 -3 -4 -9 51 -12 121 -4 70 -11 131 -17 137 -7 7 -10 -59 -10
-202 0 -178 2 -212 14 -212 9 0 16 -12 18 -32 2 -25 8 -33 23 -33 25 0 33 29
34 139 1 82 3 92 27 117 16 17 28 44 33 75 7 49 7 48 19 -46 16 -131 28 -170
52 -170 24 0 27 13 35 135 6 100 23 210 31 203 2 -3 7 -38 10 -79 22 -282 25
-298 57 -286 9 3 16 29 20 78 4 48 11 75 21 81 10 6 16 38 21 113 7 99 9 105
25 90 19 -17 56 -20 65 -5 4 6 15 60 26 122 10 61 21 113 23 115 2 2 6 -10 9
-27 4 -16 13 -30 20 -30 20 0 45 31 49 60 3 24 4 24 20 -10 10 -22 19 -76 24
-147 4 -61 10 -116 13 -121 3 -6 22 -13 43 -17 41 -8 42 -7 53 90 8 69 17 60
35 -38 11 -60 15 -68 33 -65 14 2 24 14 30 38 l10 35 8 -44 c10 -50 21 -66 42
-58 10 4 16 27 19 77 3 53 8 75 21 85 14 10 18 36 24 149 3 75 8 134 11 132 2
-3 8 -22 13 -43 23 -106 46 -177 59 -181 7 -3 23 8 36 23 l21 27 6 -53 c4 -30
9 -121 13 -204 7 -173 9 -185 34 -185 14 0 21 9 24 33 13 82 26 204 26 245 0
31 5 49 17 57 12 9 19 32 23 72 4 51 8 58 28 61 26 4 52 48 52 90 0 21 6 31
19 35 16 4 19 19 25 133 8 146 15 209 26 238 6 17 8 14 14 -17 18 -98 76 -21
76 102 0 21 3 40 6 44 10 9 54 -61 54 -86 1 -12 8 -40 16 -62 8 -22 17 -89 20
-150 14 -270 17 -290 40 -293 18 -3 22 4 27 35 4 21 7 64 7 96 0 36 4 56 10
52 6 -3 10 -28 10 -55 0 -57 7 -80 26 -80 19 0 31 27 38 95 10 85 16 105 32
105 7 0 16 10 19 23 14 65 25 146 25 184 0 24 5 43 10 43 6 0 10 -22 10 -49 0
-59 14 -101 34 -101 20 0 24 18 30 145 12 216 38 391 62 410 12 10 22 67 24
130 0 23 3 27 10 15 5 -8 10 -25 10 -37 0 -12 7 -26 15 -31 9 -4 19 -21 24
-38 5 -19 14 -29 27 -29 15 0 20 10 27 55 18 122 22 141 32 141 6 0 12 -17 15
-38 4 -33 9 -39 35 -43 23 -4 31 -11 32 -30 2 -14 7 -97 13 -185 5 -88 14
-194 19 -235 5 -41 12 -149 16 -240 7 -183 10 -200 31 -200 23 0 32 35 44 170
6 68 14 128 17 133 3 4 14 -10 25 -32 20 -40 43 -52 64 -31 7 7 11 -3 12 -27
4 -51 23 -88 47 -88 16 0 21 10 28 54 6 36 12 50 17 40 6 -11 30 -274 30 -329
0 -6 11 -10 24 -10 23 0 25 4 31 78 18 227 18 227 42 224 12 -2 24 2 28 8 9
14 34 233 35 299 0 94 7 51 14 -89 9 -163 10 -170 42 -170 20 0 24 -5 24 -28
0 -67 57 -82 96 -25 17 26 23 54 29 137 6 96 9 106 31 121 16 10 24 25 24 43
0 16 3 22 8 15 4 -6 9 -63 11 -125 2 -62 5 -126 6 -143 2 -16 3 -45 4 -62 1
-26 5 -33 21 -33 23 0 27 8 33 68 7 66 14 60 26 -20 7 -40 15 -93 19 -117 4
-24 13 -46 20 -49 15 -5 17 199 2 227 -5 10 -14 61 -21 112 -12 105 -21 124
-50 108 -18 -9 -19 -5 -19 79 0 98 -11 123 -48 103 -22 -12 -52 -79 -52 -116
0 -20 -5 -25 -24 -25 -27 0 -29 -11 -42 -185 -7 -103 -19 -139 -28 -85 -3 19
-13 76 -21 125 -8 50 -21 95 -29 100 -9 7 -16 42 -21 98 -8 89 -27 142 -58
161 -27 17 -34 -4 -42 -136 -5 -93 -10 -118 -20 -114 -23 8 -32 -16 -45 -118
-16 -131 -22 -144 -35 -71 l-10 60 -40 0 c-38 0 -40 2 -47 35 -4 19 -7 65 -7
101 -1 67 -14 95 -39 80 -10 -6 -30 -149 -32 -220 0 -8 -14 4 -32 27 -33 43
-68 56 -68 25 0 -9 -3 -13 -7 -9 -11 10 -20 103 -37 369 -8 131 -18 242 -21
247 -10 17 -33 11 -40 -10 -9 -29 -25 -14 -25 24 0 18 -3 54 -6 80 -5 35 -11
46 -25 46 -10 0 -20 -3 -22 -7z"/>
</g>
</svg>
